Coordinates
version=1
nRows=33
nColumns=38
inDegrees=no

Units are S.I. units (second, meters, Newtons, ...)
If the header above contains a line with 'inDegrees', this indicates whether rotational values are in degrees (yes) or radians (no).

endheader
time	pelvis_tilt	pelvis_list	pelvis_rotation	pelvis_tx	pelvis_ty	pelvis_tz	hip_flexion_r	hip_adduction_r	hip_rotation_r	knee_angle_r	ankle_angle_r	subtalar_angle_r	mtp_angle_r	hip_flexion_l	hip_adduction_l	hip_rotation_l	knee_angle_l	ankle_angle_l	subtalar_angle_l	mtp_angle_l	lumbar_extension	lumbar_bending	lumbar_rotation	arm_flex_r	arm_add_r	arm_rot_r	elbow_flex_r	pro_sup_r	wrist_flex_r	wrist_dev_r	arm_flex_l	arm_add_l	arm_rot_l	elbow_flex_l	pro_sup_l	wrist_flex_l	wrist_dev_l
1.59	-0.0734098	1.5299	-1.50101	0.623332	-0.259361	0.964793	-0.0292534	0.0255245	-0.188286	0.278871	0.184435	0	0	0.49197	-0.0798896	-0.138982	0.841202	0.20319	0	0	-0.129289	-0.000240251	-0.0215343	-0.0306699	-0.164091	-0.0549073	0.345412	1.26285	0	0	-0.109001	-0.425721	0.703543	0.621474	0.715785	0	0
1.6	-0.100924	1.52849	-1.48423	0.622548	-0.269841	0.964195	-0.0471313	0.0226788	-0.19038	0.270341	0.19441	0	0	0.484593	-0.0735913	-0.158569	0.77655	0.20426	0	0	-0.131969	0.000303689	-0.016374	-0.0260733	-0.162795	-0.056526	0.344886	1.25622	0	0	-0.114291	-0.424929	0.696439	0.620126	0.716481	0	0
1.61	-0.0987059	1.52712	-1.49176	0.621401	-0.280484	0.963465	-0.0648278	0.0231367	-0.188615	0.263291	0.201626	0	0	0.475488	-0.0756724	-0.184459	0.708611	0.210086	0	0	-0.134302	-0.0017336	-0.0141867	-0.022808	-0.159739	-0.0570162	0.344073	1.24911	0	0	-0.118432	-0.425786	0.691701	0.618352	0.71708	0	0
1.62	-0.100986	1.52582	-1.49479	0.620313	-0.291283	0.96258	-0.0828797	0.0234638	-0.18755	0.255919	0.208711	0	0	0.464721	-0.077214	-0.214162	0.638449	0.214843	0	0	-0.13631	-0.00362871	-0.012012	-0.020155	-0.156695	-0.0557401	0.343922	1.24073	0	0	-0.122961	-0.426435	0.687314	0.616337	0.718167	0	0
1.63	-0.136878	1.52669	-1.46326	0.61943	-0.302249	0.96129	-0.0982596	0.024723	-0.189071	0.249518	0.216054	0	0	0.456118	-0.0783264	-0.245009	0.568238	0.21967	0	0	-0.135143	-0.00394881	-0.010544	-0.018947	-0.154184	-0.0525251	0.344783	1.23274	0	0	-0.128763	-0.426444	0.681797	0.615035	0.719067	0	0
1.64	-0.104927	1.52303	-1.50059	0.618555	-0.313509	0.960441	-0.121923	0.0236615	-0.186861	0.236773	0.220762	0	0	0.437505	-0.0749754	-0.28125	0.490252	0.220389	0	0	-0.139599	-0.00749545	-0.0086259	-0.0136962	-0.147455	-0.0756357	0.3382	1.26086	0	0	-0.136798	-0.423697	0.659066	0.61288	0.736386	0	0
1.65	-0.150536	1.52484	-1.45777	0.618089	-0.324822	0.958884	-0.140108	0.026239	-0.183694	0.222796	0.224577	0	0	0.427719	-0.0718493	-0.311983	0.417733	0.222853	0	0	-0.136864	-0.00704706	-0.00836428	-0.0134767	-0.144749	-0.0741455	0.339228	1.25634	0	0	-0.145061	-0.421826	0.646089	0.612816	0.739235	0	0
1.66	-0.119052	1.52053	-1.49236	0.617824	-0.336371	0.957938	-0.167899	0.0253981	-0.174709	0.203795	0.22441	0	0	0.404967	-0.0609612	-0.338266	0.333855	0.21942	0	0	-0.141771	-0.00983961	-0.00844824	-0.0125427	-0.141938	-0.0711867	0.341366	1.24815	0	0	-0.154694	-0.418221	0.622036	0.613396	0.743679	0	0
1.67	-0.231971	1.51878	-1.37787	0.617853	-0.348278	0.956716	-0.20898	0.0369724	-0.156065	0.148969	0.205863	0	0	0.390083	-0.0554049	-0.355024	0.260301	0.221026	0	0	-0.141623	-0.00437132	-0.0111965	-0.0134876	-0.139758	-0.0700233	0.34249	1.24347	0	0	-0.164109	-0.414507	0.606502	0.613324	0.744469	0	0
1.68	-0.186471	1.52183	-1.42607	0.618122	-0.360077	0.954846	-0.22244	0.0311244	-0.155931	0.145399	0.213923	0	0	0.371132	-0.0357706	-0.35494	0.171353	0.209447	0	0	-0.137925	-0.00825739	-0.0112375	-0.0147529	-0.138011	-0.0640733	0.344178	1.2317	0	0	-0.17608	-0.409608	0.581444	0.614748	0.746365	0	0
1.69	-0.139872	1.52549	-1.47702	0.618426	-0.372163	0.95281	-0.230967	0.0243939	-0.157476	0.150097	0.224828	0	0	0.346865	-0.0142695	-0.333765	0.0729296	0.186535	0	0	-0.132838	-0.0117766	-0.00924944	-0.0174351	-0.137082	-0.0566425	0.347113	1.21761	0	0	-0.188648	-0.40421	0.557822	0.616183	0.74596	0	0
1.7	-0.182511	1.53115	-1.43938	0.618507	-0.384354	0.950409	-0.235077	0.0222332	-0.156898	0.157675	0.234673	0	0	0.333045	-0.00226731	-0.318143	0	0.172449	0	0	-0.124774	-0.011388	-0.00554041	-0.020638	-0.136503	-0.0500777	0.349087	1.20553	0	0	-0.200455	-0.399889	0.542399	0.617395	0.745011	0	0
1.71	-0.167824	1.53408	-1.45391	0.618464	-0.395471	0.948014	-0.237279	0.0245464	-0.151378	0.175028	0.241277	0	0	0.347586	0.00403876	-0.314182	0	0.174153	0	0	-0.122167	-0.0140421	-0.00364008	-0.0181802	-0.128393	-0.0947885	0.339664	1.26465	0	0	-0.20853	-0.400304	0.539356	0.623055	0.704572	0	0
1.72	-0.179711	1.53599	-1.44443	0.618459	-0.407359	0.946019	-0.241933	0.0210986	-0.156749	0.190676	0.2507	0	0	0.356588	0.00693835	-0.316453	0	0.17988	0	0	-0.119947	-0.0154028	-0.000662925	-0.0195382	-0.126276	-0.0947042	0.338931	1.26132	0	0	-0.216946	-0.398552	0.531926	0.624001	0.695839	0	0
1.73	-0.20067	1.53464	-1.42644	0.618436	-0.419794	0.944504	-0.253496	0.0196954	-0.154156	0.198034	0.251027	0	0	0.359393	0.00908259	-0.319025	0	0.184668	0	0	-0.121003	-0.0159965	0.00231208	-0.023239	-0.127741	-0.0680898	0.343809	1.22366	0	0	-0.225332	-0.394424	0.515796	0.619794	0.726623	0	0
1.74	-0.168827	1.53597	-1.46331	0.618317	-0.432733	0.942882	-0.255273	0.0132224	-0.159915	0.220632	0.259346	0	0	0.362698	0.0129755	-0.323608	0	0.185035	0	0	-0.118999	-0.0191952	0.00815168	-0.0244088	-0.125541	-0.0728025	0.340858	1.22799	0	0	-0.232992	-0.393708	0.512252	0.619888	0.719718	0	0
1.75	-0.0873763	1.53627	-1.55123	0.618086	-0.446291	0.941494	-0.257862	0.00398427	-0.164544	0.244693	0.266948	0	0	0.362504	0.0179928	-0.326144	0	0.181299	0	0	-0.117154	-0.0242254	0.0160725	-0.0263543	-0.123697	-0.0770324	0.337428	1.23124	0	0	-0.240155	-0.394018	0.512238	0.619891	0.713157	0	0
1.76	-0.0117657	1.53475	-1.63452	0.618094	-0.460243	0.940619	-0.264261	-0.0139401	-0.180431	0.267421	0.279866	0	0	0.365758	0.0174081	-0.336002	0.0229602	0.184921	0	0	-0.116037	-0.029199	0.0254441	-0.0288876	-0.122472	-0.0806372	0.333149	1.23328	0	0	-0.247284	-0.394914	0.515224	0.619892	0.707777	0	0
1.77	0.11376	1.53074	-1.76582	0.617847	-0.473941	0.939675	-0.26845	-0.0269628	-0.182522	0.296539	0.283601	0	0	0.381658	0.0157479	-0.348397	0.0864569	0.198859	0	0	-0.117022	-0.0373374	0.0349887	-0.0322666	-0.121141	-0.08445	0.329089	1.23458	0	0	-0.253671	-0.397467	0.519528	0.620474	0.70377	0	0
1.78	0.184609	1.53344	-1.84365	0.617463	-0.487895	0.938061	-0.260596	-0.0381557	-0.183688	0.335519	0.287182	0	0	0.410113	0.0056828	-0.368556	0.170305	0.22785	0	0	-0.108794	-0.0418631	0.0463222	-0.0396984	-0.123034	-0.0689574	0.328653	1.20613	0	0	-0.26222	-0.402078	0.53231	0.624893	0.682955	0	0
1.79	0.26325	1.53064	-1.92895	0.617361	-0.502484	0.937087	-0.260907	-0.0506263	-0.180329	0.368204	0.282852	0	0	0.418536	0.00456393	-0.359809	0.224013	0.241304	0	0	-0.105343	-0.0476493	0.0564581	-0.0444734	-0.123408	-0.0734421	0.322541	1.21096	0	0	-0.272283	-0.403081	0.531325	0.625543	0.682837	0	0
1.8	0.343879	1.53165	-2.01579	0.617535	-0.517386	0.935749	-0.253009	-0.0633669	-0.177757	0.408705	0.276798	0	0	0.430161	0.00374971	-0.347035	0.274915	0.257637	0	0	-0.0963684	-0.0514978	0.0652272	-0.0500689	-0.125044	-0.0774111	0.315996	1.21538	0	0	-0.2851	-0.40334	0.528049	0.627615	0.683146	0	0
1.81	0.459308	1.53534	-2.13618	0.618077	-0.532523	0.934129	-0.238021	-0.0766024	-0.175236	0.455644	0.266813	0	0	0.442293	0.00563318	-0.330652	0.315022	0.263526	0	0	-0.0830671	-0.0542313	0.0712687	-0.0568423	-0.127485	-0.0818396	0.311466	1.21973	0	0	-0.300639	-0.402558	0.52333	0.629771	0.6836	0	0
1.82	0.732526	1.54216	-2.41273	0.618933	-0.547637	0.932046	-0.210528	-0.0917022	-0.173073	0.513945	0.252286	0	0	0.458394	0.0105866	-0.311709	0.344544	0.248355	0	0	-0.0632466	-0.0571283	0.0741732	-0.064638	-0.130181	-0.0875826	0.309022	1.22651	0	0	-0.318728	-0.401059	0.515645	0.632245	0.682859	0	0
1.83	1.12835	1.54379	-2.80839	0.620135	-0.56242	0.930303	-0.179528	-0.107897	-0.167853	0.576728	0.228454	0	0	0.470827	0.020874	-0.286626	0.36194	0.209122	0	0	-0.0455494	-0.0623531	0.0725942	-0.0714201	-0.132569	-0.0933536	0.309054	1.23361	0	0	-0.335868	-0.399572	0.505899	0.634315	0.680819	0	0
1.84	1.49301	1.53971	3.11397	0.621555	-0.576679	0.928918	-0.144005	-0.12426	-0.159673	0.645025	0.194051	0	0	0.485999	0.0315472	-0.265348	0.385688	0.170735	0	0	-0.0306957	-0.0695698	0.066974	-0.0764918	-0.134276	-0.0974483	0.308969	1.24435	0	0	-0.350642	-0.399818	0.498738	0.637374	0.676045	0	0
1.85	1.84826	1.5191	2.76377	0.622887	-0.590342	0.926286	-0.0791494	-0.176076	-0.198989	0.754602	0.155085	0	0	0.514666	0.0514575	-0.252532	0.420661	0.150507	0	0	-0.00724511	-0.0905298	0.0597612	-0.0868327	-0.138504	-0.0566973	0.321228	1.1994	0	0	-0.36877	-0.409052	0.49948	0.653553	0.652544	0	0
1.86	1.86457	1.51705	2.75431	0.623952	-0.60437	0.925857	-0.0494222	-0.183687	-0.180949	0.818054	0.0946911	0	0	0.535995	0.0415575	-0.27614	0.489904	0.158792	0	0	-0.00338424	-0.0936287	0.0542952	-0.0932275	-0.14262	-0.050056	0.327868	1.1966	0	0	-0.376963	-0.42145	0.52917	0.671319	0.582198	0	0
1.87	1.7389	1.50547	2.88754	0.625051	-0.61753	0.926864	-0.0213077	-0.203028	-0.161274	0.882799	0.0308103	0	0	0.523112	0.0704524	-0.233137	0.491165	0.143761	0	0	-0.00822328	-0.110072	0.0472014	-0.0935952	-0.144	-0.0403403	0.328262	1.18737	0	0	-0.381607	-0.429198	0.533664	0.678626	0.571893	0	0
1.88	1.64888	1.49644	2.98252	0.625476	-0.631119	0.927241	-0.00131862	-0.215312	-0.142719	0.93411	-0.0284886	0	0	0.517098	0.0806905	-0.232814	0.516088	0.140138	0	0	-0.0124261	-0.123154	0.0428021	-0.0960029	-0.146311	-0.0288701	0.329829	1.17863	0	0	-0.389578	-0.438769	0.53542	0.691514	0.565779	0	0
1.89	1.56764	1.49094	3.06755	0.626125	-0.644279	0.928234	0.027305	-0.223801	-0.113596	0.992835	-0.095187	0	0	0.503789	0.087569	-0.235379	0.52962	0.134833	0	0	-0.0185618	-0.130816	0.0399471	-0.0972539	-0.150182	-0.0201254	0.33092	1.17204	0	0	-0.393724	-0.444849	0.536945	0.699494	0.564266	0	0
1.9	1.55618	1.48183	3.08423	0.626273	-0.657307	0.928273	0.049534	-0.227146	-0.0886396	1.02814	-0.1613	0	0	0.492876	0.0970082	-0.242238	0.53733	0.131989	0	0	-0.0180054	-0.143293	0.035553	-0.100677	-0.151824	-0.0114531	0.335408	1.1643	0	0	-0.401665	-0.454729	0.53467	0.712314	0.565945	0	0
1.91	1.52221	1.47714	3.1244	0.627223	-0.669942	0.929355	0.0812013	-0.234671	-0.0743504	1.08039	-0.233982	0	0	0.474768	0.105375	-0.245065	0.535557	0.127265	0	0	-0.0209949	-0.14905	0.0310071	-0.104356	-0.15604	-0.00658286	0.342493	1.15696	0	0	-0.403109	-0.458891	0.534729	0.715318	0.570119	0	0
